<svg width="620" height="164" viewBox="0 0 620 164"
     xmlns="http://www.w3.org/2000/svg" role="img" aria-label="Top languages">
  <defs>
    <linearGradient id="cardbg" x1="0" y1="0" x2="1" y2="1">
      <stop offset="0%" stop-color="#1b1c26"/>
      <stop offset="100%" stop-color="#0e0f15"/>
    </linearGradient>
  </defs>
  <rect x="0" y="0" width="620" height="164" rx="18" fill="url(#cardbg)"/>
<text x="30" y="38" font-family="monospace" font-size="13" font-weight="700" fill="#9AA0B4" text-anchor="start">TOP LANGUAGES</text>
<text x="30" y="77" font-family="monospace" font-size="13" font-weight="600" fill="#F5F5F7" text-anchor="start">TypeScript</text>
<rect x="170" y="64" width="360" height="14" rx="7" fill="#2a2c3a"/>
<rect x="170" y="64" width="148.2" height="14" rx="7" fill="#3178c6"/>
<text x="590" y="77" font-family="monospace" font-size="12" font-weight="600" fill="#9AA0B4" text-anchor="end">41.2%</text>
<text x="30" y="103" font-family="monospace" font-size="13" font-weight="600" fill="#F5F5F7" text-anchor="start">Python</text>
<rect x="170" y="90" width="360" height="14" rx="7" fill="#2a2c3a"/>
<rect x="170" y="90" width="127.1" height="14" rx="7" fill="#3572A5"/>
<text x="590" y="103" font-family="monospace" font-size="12" font-weight="600" fill="#9AA0B4" text-anchor="end">35.3%</text>
<text x="30" y="129" font-family="monospace" font-size="13" font-weight="600" fill="#F5F5F7" text-anchor="start">Rust</text>
<rect x="170" y="116" width="360" height="14" rx="7" fill="#2a2c3a"/>
<rect x="170" y="116" width="52.9" height="14" rx="7" fill="#dea584"/>
<text x="590" y="129" font-family="monospace" font-size="12" font-weight="600" fill="#9AA0B4" text-anchor="end">14.7%</text>
<text x="30" y="155" font-family="monospace" font-size="13" font-weight="600" fill="#F5F5F7" text-anchor="start">JavaScript</text>
<rect x="170" y="142" width="360" height="14" rx="7" fill="#2a2c3a"/>
<rect x="170" y="142" width="31.8" height="14" rx="7" fill="#f1e05a"/>
<text x="590" y="155" font-family="monospace" font-size="12" font-weight="600" fill="#9AA0B4" text-anchor="end">8.8%</text>
</svg>
